<svg width="177" height="24" viewBox="0 0 177 24" fill="none" xmlns="http://www.w3.org/2000/svg">
<path d="M14.8092 17.2214C14.8092 21.7161 12.01 24.0039 7.73063 24.0039C5.41598 24.0039 3.26282 23.3579 1.40571 22.066L2.34772 20.4511C3.93568 21.6085 5.71204 22.2275 7.70372 22.2275C10.772 22.2275 12.7637 20.5319 12.7637 17.2752V15.6334C11.5525 17.2483 9.85688 18.5671 7.3 18.5671C3.9626 18.5671 0.759766 16.091 0.759766 12.0269C0.759766 7.93588 3.98951 5.43283 7.3 5.43283C9.91071 5.43283 11.6063 6.72473 12.7367 8.23194V5.72889H14.8092V17.2214ZM12.8175 12C12.8175 9.12012 10.3413 7.26302 7.70372 7.26302C5.06609 7.26302 2.88601 9.0663 2.88601 11.9731C2.88601 14.826 5.11992 16.7369 7.70372 16.7369C10.3413 16.7369 12.8175 14.8529 12.8175 12Z" fill="#242424"/>
<path d="M20.2207 19.6437H18.1482V-0.00390625H20.2207V19.6437Z" fill="#242424"/>
<path d="M37.1955 12.6728C37.1955 16.6293 34.1004 19.9667 29.9017 19.9667C25.7299 19.9667 22.6886 16.6831 22.6886 12.7267C22.6886 8.77024 25.7569 5.43283 29.9555 5.43283C34.1273 5.43283 37.1955 8.71641 37.1955 12.6728ZM35.0693 12.7267C35.0693 9.68533 32.8354 7.26302 29.9017 7.26302C26.8873 7.26302 24.8149 9.65841 24.8149 12.6728C24.8149 15.6873 27.0218 18.1096 29.9555 18.1096C32.97 18.1096 35.0693 15.7142 35.0693 12.7267Z" fill="#242424"/>
<path d="M53.5188 12.6728C53.5188 17.2483 50.2352 19.9398 46.8709 19.9398C44.2871 19.9398 42.6184 18.5402 41.5418 16.9792V19.6437H39.4694V-0.00390625H41.5418V8.528C42.6722 6.8593 44.314 5.43283 46.8709 5.43283C50.2083 5.43283 53.5188 8.07046 53.5188 12.6728ZM51.3925 12.6998C51.3925 9.38927 49.1317 7.28994 46.4941 7.28994C43.9103 7.28994 41.4611 9.4431 41.4611 12.6728C41.4611 15.9295 43.9103 18.0827 46.4941 18.0827C49.1856 18.0827 51.3925 16.091 51.3925 12.6998Z" fill="#242424"/>
<path d="M60.8951 7.37068C59.2533 7.37068 57.9614 7.80131 56.6695 8.39343L56.0504 6.69781C57.5846 5.99804 59.0918 5.54049 61.1104 5.54049C64.9053 5.54049 67.0316 7.47834 67.0316 11.1387V19.6437H65.0399V17.5444C64.071 18.8094 62.4561 19.9398 60.0069 19.9398C57.4231 19.9398 54.8124 18.4864 54.8124 15.5796C54.8124 12.619 57.2347 11.058 60.7605 11.058C62.5368 11.058 63.8018 11.3002 65.0399 11.6501V11.1656C65.0399 8.66258 63.5058 7.37068 60.8951 7.37068ZM60.9758 12.5921C58.3651 12.5921 56.9117 13.7225 56.9117 15.4989C56.9117 17.2752 58.5266 18.298 60.4106 18.298C62.9675 18.298 65.0668 16.7369 65.0668 14.5299V13.1842C64.0441 12.8882 62.6714 12.5921 60.9758 12.5921Z" fill="#242424"/>
<path d="M72.2288 19.6437H70.1564V-0.00390625H72.2288V19.6437Z" fill="#242424"/>
<path d="M92.0245 15.445C92.0245 18.4326 89.7098 19.9129 86.7492 19.9129C84.7306 19.9129 82.4967 19.1862 80.7204 17.7866L82.1737 15.5796C83.7079 16.7369 85.3766 17.3291 86.83 17.3291C88.2295 17.3291 89.037 16.7369 89.037 15.7949V15.7411C89.037 14.6376 87.5297 14.2608 85.861 13.7494C83.7617 13.1573 81.4201 12.296 81.4201 9.57767V9.52384C81.4201 6.83239 83.654 5.1906 86.4801 5.1906C88.2564 5.1906 90.1943 5.80964 91.7015 6.80547L90.4096 9.12012C89.0369 8.28577 87.5836 7.7744 86.3993 7.7744C85.1343 7.7744 84.4077 8.36652 84.4077 9.20087V9.2547C84.4077 10.2775 85.9418 10.7081 87.6105 11.2464C89.6829 11.8923 92.0245 12.8343 92.0245 15.3912V15.445Z" fill="#242424"/>
<path d="M108.227 12.5383C108.227 16.6024 104.997 19.9667 100.61 19.9667C96.277 19.9667 93.0741 16.6562 93.0741 12.5921C93.0741 8.50109 96.3039 5.13677 100.664 5.13677C105.024 5.13677 108.227 8.44726 108.227 12.5383ZM104.97 12.5921C104.97 10.0621 103.167 7.98971 100.61 7.98971C97.9995 7.98971 96.3308 10.0352 96.3308 12.5383C96.3308 15.0682 98.1341 17.1407 100.664 17.1407C103.302 17.1407 104.97 15.0952 104.97 12.5921Z" fill="#242424"/>
<path d="M113.508 19.6437H110.252V-0.00390625H113.508V19.6437Z" fill="#242424"/>
<path d="M125.623 13.4534V5.43283H128.88V19.6437H125.623V17.4367C124.708 18.7824 123.39 19.9398 121.183 19.9398C117.98 19.9398 116.123 17.7866 116.123 14.4761V5.43283H119.379V13.5072C119.379 15.7142 120.483 16.9792 122.421 16.9792C124.305 16.9792 125.623 15.6604 125.623 13.4534Z" fill="#242424"/>
<path d="M135.424 8.23194V15.2028C135.424 16.4678 136.069 16.9792 137.173 16.9792C137.9 16.9792 138.546 16.8177 139.192 16.4947V19.1593C138.384 19.6168 137.469 19.8859 136.258 19.8859C133.862 19.8859 132.167 18.8363 132.167 15.7142V8.23194H130.364V5.43283H132.167V1.53022H135.424V5.43283H139.245V8.23194H135.424Z" fill="#242424"/>
<path d="M144.606 3.25275H141.107V0.157581H144.606V3.25275ZM144.498 19.6437H141.241V5.43283H144.498V19.6437Z" fill="#242424"/>
<path d="M161.646 12.5383C161.646 16.6024 158.416 19.9667 154.029 19.9667C149.696 19.9667 146.493 16.6562 146.493 12.5921C146.493 8.50109 149.723 5.13677 154.083 5.13677C158.443 5.13677 161.646 8.44726 161.646 12.5383ZM158.389 12.5921C158.389 10.0621 156.586 7.98971 154.029 7.98971C151.419 7.98971 149.75 10.0352 149.75 12.5383C149.75 15.0682 151.553 17.1407 154.083 17.1407C156.721 17.1407 158.389 15.0952 158.389 12.5921Z" fill="#242424"/>
<path d="M166.739 11.6232V19.6437H163.482V5.43283H166.739V7.63982C167.654 6.2941 168.973 5.13677 171.18 5.13677C174.383 5.13677 176.24 7.28994 176.24 10.6004V19.6437H172.983V11.5693C172.983 9.36236 171.88 8.09737 169.942 8.09737C168.058 8.09737 166.739 9.41618 166.739 11.6232Z" fill="#242424"/>
</svg>
